# xmcd
#
# Track frame offsets:
#   150
#   14199
#   27803
#   41372
#   56626
#   67115
#   82739
#   98058
#   108865
#   121402
#   135896
#   149618
#   166155
#
# Disc length: 2394 seconds
#
# Revision: 0
# Processed by: cddbd v1.5.2PL0 Copyright (c) Steve Scherf et al.
# Submitted via: uFREEDB ActiveX Control 1.5
#
DISCID=a609580d
DTITLE=Cachoeiro E Clael - Sem nome
DYEAR=2007
DGENRE=Sertanejo
TTITLE0=O Bailão Tá Começando
TTITLE1=Rancho De Caboclo
TTITLE2=Leitão Na Brasa
TTITLE3=Chuva Abençoada
TTITLE4=O Trem Aqui Tá Bom
TTITLE5=Saudade De Minha Terra
TTITLE6=Fogo No Barraco
TTITLE7=Gamadinho Em Você
TTITLE8=Herança De Carreiro
TTITLE9=Só Alegria
TTITLE10=Filho Pobre
TTITLE11=Cowboy Apaixonado
TTITLE12=Meu Recanto
EXTD=
EXTT0=
EXTT1=
EXTT2=
EXTT3=
EXTT4=
EXTT5=
EXTT6=
EXTT7=
EXTT8=
EXTT9=
EXTT10=
EXTT11=
EXTT12=
PLAYORDER=
